<svg width="32" height="32" viewBox="0 0 32 32" fill="none" xmlns="http://www.w3.org/2000/svg">
<path d="M21.4667 14.9167H22.0702L21.6434 14.4899L17.2434 10.0899C16.8077 9.65419 16.8077 9.01248 17.2434 8.57678C17.6791 8.14107 18.3209 8.14107 18.7566 8.57678L25.4232 15.2434C25.6389 15.4591 25.75 15.7602 25.75 16.05C25.75 16.3411 25.6394 16.5913 25.45 16.7333L25.4358 16.744L25.4232 16.7566L18.7566 23.4232C18.3209 23.8589 17.6791 23.8589 17.2434 23.4232C16.8077 22.9875 16.8077 22.3458 17.2434 21.9101L21.6434 17.5101L22.0702 17.0833H21.4667H7.33333C6.99015 17.0833 6.72358 16.97 6.54344 16.7899C6.3633 16.6098 6.25 16.3432 6.25 16C6.25 15.6568 6.3633 15.3902 6.54344 15.2101C6.72358 15.03 6.99015 14.9167 7.33333 14.9167H21.4667Z" fill="white" stroke="#0061FF" stroke-width="0.5"/>
</svg>
